<svg xmlns="http://www.w3.org/2000/svg" viewBox="0 0 23 24" width="23" height="24">
	<style>
		tspan { white-space:pre }
		.shp0 { fill: none;stroke: #ffffff;stroke-linecap:round;stroke-linejoin:round } 
	</style>
	<g id="search icon">
		<g id="Group 1">
			<path id="Ellipse 1" class="shp0" d="M0,10.5c0,5.25 4.25,9.5 9.5,9.5c5.25,0 9.5,-4.25 9.5,-9.5c0,-5.25 -4.25,-9.5 -9.5,-9.5c-5.25,0 -9.5,4.25 -9.5,9.5z" />
			<path id="Shape 2" class="shp0" d="M21.65,23.35l0.71,-0.71l-6,-6l-0.71,0.71z" />
		</g>
		<g id="Group 1">
			<path id="Ellipse 1" class="shp0" d="M0,10.5c0,5.25 4.25,9.5 9.5,9.5c5.25,0 9.5,-4.25 9.5,-9.5c0,-5.25 -4.25,-9.5 -9.5,-9.5c-5.25,0 -9.5,4.25 -9.5,9.5z" />
			<path id="Shape 2" class="shp0" d="M21.65,23.35l0.71,-0.71l-6,-6l-0.71,0.71z" />
		</g>
	</g>
</svg>